<!-- Created with Inkscape (http://www.inkscape.org/) -->
<svg xmlns:rdf="http://www.w3.org/1999/02/22-rdf-syntax-ns#" xmlns="http://www.w3.org/2000/svg" version="1.1" xmlns:cc="http://creativecommons.org/ns#" xmlns:dc="http://purl.org/dc/elements/1.1/" viewBox="0 0 300 300">
 <metadata>
  <rdf:RDF>
   <cc:Work rdf:about="">
    <dc:format>image/svg+xml</dc:format>
    <dc:type rdf:resource="http://purl.org/dc/dcmitype/StillImage"/>
    <dc:title/>
   </cc:Work>
  </rdf:RDF>
 </metadata>
 <g transform="translate(0.00370398,-752.37493)">
  <path stroke-linejoin="round" style="enable-background:accumulate;color:#000000;" d="m92,750c-17,0.052,18,28,53,56,2.9-22-3-42-32-52-10-3.2-17-4.7-21-4.7zm53,56c-1.2,8.6-3.7,17-6.7,26-15,1.2-37,5.7-59,11,6,6.3,11,14,16,21-8.7,13-19,33-29,54,8.6-0.79,18-0.22,26,0.95,4.6,15,14,36,23,56,4.7-7.3,11-14,17-20,14,5.7,36,11,58,17-2.7-8.3-4.1-17-4.9-26,13-7.8,31-22,49-36-8.1-3.1-16-7.5-23-12,2.3-16,2.8-38,3.1-61-7.4,4.5-16,7.9-24,11-11-11-28-26-45-40zm69,30c18-11,31-29,20-58-20-53-19,2-20,58zm20,73c20,7.6,41,6.4,57-20,29-49-14-14-57,20zm-44,62c6.6,21,21,37,51,32,56-8,2.3-19-51-32zm-75,3.5c-12,18-15,39,6.9,61,41,39,16-10-6.9-61zm-55-50c-21,2-40,12-43,43-4.7,57,18,6.6,43-43zm13-70c-15-20-34-30-60-10-47,32,6.2,19,60,6.7zm72,27c16,0,30,13,30,30,0,16-13,30-30,30-16,0-30-13-30-30,0-16,13-30,30-30z" fill-rule="nonzero" stroke-dashoffset="25.08000061" stroke="#000" stroke-linecap="round" stroke-miterlimit="4" stroke-dasharray="none" stroke-width="0.33005551" fill="#FC0"/>
 </g>
</svg>
