<!-- Created with Inkscape (http://www.inkscape.org/) -->
<svg xmlns:rdf="http://www.w3.org/1999/02/22-rdf-syntax-ns#" xmlns="http://www.w3.org/2000/svg" height="12" width="12" version="1.1" xmlns:cc="http://creativecommons.org/ns#" xmlns:dc="http://purl.org/dc/elements/1.1/">
 <metadata>
  <rdf:RDF>
   <cc:Work rdf:about="">
    <dc:format>image/svg+xml</dc:format>
    <dc:type rdf:resource="http://purl.org/dc/dcmitype/StillImage"/>
    <dc:title/>
   </cc:Work>
  </rdf:RDF>
 </metadata>
 <g fill-rule="nonzero" transform="translate(0,-1040.3622)" fill="#FC0">
  <path style="color:#000000;enable-background:accumulate;" d="M5.4,1000h-5.4,1.1c0.16-2.5,2.1-4.5,4.6-4.6v-1.1c-0.094,0-0.19-0.01-0.28,0z"/>
  <path style="color:#000000;enable-background:accumulate;" d="m6.4,1000,0,1.1c2.5,0.18,4.4,2.1,4.6,4.6h1.1c-0.17-3.1-2.6-5.5-5.7-5.7z"/>
  <path style="color:#000000;enable-background:accumulate;" d="m0,1000c0.16,3.1,2.6,5.5,5.7,5.7v-1.1c-2.5-0.15-4.5-2.1-4.6-4.6h-1.1z"/>
  <path style="color:#000000;enable-background:accumulate;" d="m11,1000c-0.16,2.5-2.1,4.4-4.6,4.6v1.1c3.1-0.19,5.5-2.6,5.7-5.7h-1.1z"/>
 </g>
</svg>
