<?xml version="1.0" encoding="UTF-8" standalone="no"?>
<!-- Created with Inkscape (http://www.inkscape.org/) -->
<svg xmlns:inkscape="http://www.inkscape.org/namespaces/inkscape" xmlns:rdf="http://www.w3.org/1999/02/22-rdf-syntax-ns#" xmlns="http://www.w3.org/2000/svg" inkscape:version="0.48.4 r9939" height="12.00004" width="12" version="1.1" xmlns:cc="http://creativecommons.org/ns#" xmlns:dc="http://purl.org/dc/elements/1.1/" sodipodi:docname="selection-c3-optimized.svg" xmlns:sodipodi="http://sodipodi.sourceforge.net/DTD/sodipodi-0.dtd">
 <sodipodi:namedview fit-margin-left="0" inkscape:zoom="44.8" borderopacity="1.0" inkscape:current-layer="g10" inkscape:cx="5.839387" inkscape:cy="6.2529971" inkscape:window-maximized="1" inkscape:snap-bbox="false" showgrid="true" fit-margin-right="0" inkscape:snap-global="true" inkscape:document-units="px" bordercolor="#666666" inkscape:window-x="0" inkscape:window-y="27" inkscape:snap-smooth-nodes="true" fit-margin-bottom="0" inkscape:window-width="1440" inkscape:pageopacity="0.0" inkscape:pageshadow="2" pagecolor="#ffffff" inkscape:window-height="843" fit-margin-top="0">
  <inkscape:grid originy="1.7382813e-05px" enabled="true" originx="0px" visible="true" snapvisiblegridlinesonly="true" type="xygrid" empspacing="5"/>
 </sodipodi:namedview>
 <metadata>
  <rdf:RDF>
   <cc:Work rdf:about="">
    <dc:format>image/svg+xml</dc:format>
    <dc:type rdf:resource="http://purl.org/dc/dcmitype/StillImage"/>
    <dc:title/>
   </cc:Work>
  </rdf:RDF>
 </metadata>
 <g fill-rule="nonzero" transform="translate(0,-1040.3622)" inkscape:groupmode="layer" inkscape:label="Layer 1" fill="#FC0">
  <path style="color:#000000;enable-background:accumulate;" d="m5.9075,1041.705c-1.065593,0.014-2.112047,0.3832-2.96875,1.125l0.59375,0.5937c0.6919779-0.578,1.52384-0.8623,2.375-0.875v-0.8437zm0.1875,0,0,0.8437c0.8303849,0.027,1.667017,0.3146,2.34375,0.875l0.59375-0.5937c-0.8410632-0.7253-1.892869-1.0968-2.9375-1.125zm-3.625,1.5937c-0.7483,0.8568-1.1123,1.9043-1.125,2.9687h0.84375c0.0132-0.8481,0.2928-1.6844,0.875-2.375l-0.59375-0.594zm7.03125,0.031-0.5625,0.5624c0.5674,0.6851,0.8593,1.5307,0.875,2.375h0.84375c-0.0214-1.0545-0.42375-2.0878-1.15625-2.9374zm-8.15625,3.125c0.0294,1.0434,0.3971,2.0944,1.125,2.9374l0.59375-0.5937c-0.564-0.6769-0.8469-1.5155-0.875-2.3437h-0.84375zm8.46875,0c-0.0245,0.8442-0.33525,1.6914-0.90625,2.375l0.59375,0.5937c0.7346-0.8486,1.13595-1.9143,1.15625-2.9687h-0.84375zm-6.25,2.8124-0.59375,0.5938c0.8513165,0.735,1.882818,1.1336,2.9375,1.1562v-0.8437c-0.8327796-0.021-1.658011-0.3307-2.34375-0.9063zm4.875,0c-0.6836868,0.5765-1.512517,0.8854-2.34375,0.9063v0.8437c1.054598-0.02,2.120348-0.4152,2.96875-1.1562l-0.625-0.5938z" inkscape:connector-curvature="0"/>
 </g>
</svg>
