<?xml version="1.0" encoding="UTF-8" standalone="no"?>
<!-- Created with Inkscape (http://www.inkscape.org/) -->
<svg id="svg2" xmlns:rdf="http://www.w3.org/1999/02/22-rdf-syntax-ns#" xmlns="http://www.w3.org/2000/svg" height="386.44" width="386.38" version="1.1" xmlns:cc="http://creativecommons.org/ns#" xmlns:dc="http://purl.org/dc/elements/1.1/">
 <metadata id="metadata7">
  <rdf:RDF>
   <cc:Work rdf:about="">
    <dc:format>image/svg+xml</dc:format>
    <dc:type rdf:resource="http://purl.org/dc/dcmitype/StillImage"/>
    <dc:title/>
   </cc:Work>
  </rdf:RDF>
 </metadata>
 <g id="layer1" fill-rule="nonzero" transform="translate(-185.375,-220.5625)" stroke="#000" stroke-dasharray="none" stroke-miterlimit="4" stroke-width="1" fill="#FC0">
  <path id="path2985" style="enable-background:accumulate;color:#000000;" d="m375.44,259.53c-35.147,0.70674-70.1,13.352-98.25,37.938l17.938,17.938c23.17-19.695,51.645-29.878,80.312-30.562v-25.312zm7.5312,0.0312,0,25.312c28.578,0.9778,56.905,11.406,79.875,31.281l17.938-17.938c-27.95-24.76-62.74-37.65-97.81-38.65zm-119.97,52c-24.776,27.957-37.662,62.744-38.656,97.812h25.312c0.97298-28.592,11.372-56.933,31.25-79.906l-17.9-17.9zm231.88,0.84375-17.969,17.969c19.399,22.817,29.571,50.784,30.531,79h25.344c-0.98-34.71-13.62-69.15-37.9-96.96zm-270.56,104.5c0.71,35.51,13.6,70.8,38.68,99.1l17.906-17.906c-20.175-23.318-30.612-52.161-31.312-81.188h-25.281zm283.19,0c-0.69194,28.651-10.903,57.118-30.594,80.281l17.969,17.969c24.588-28.155,37.233-63.096,37.938-98.25h-25.312zm-44.656,94.5c-22.971,19.875-51.297,30.303-79.875,31.281v25.312c35.068-0.99768,69.858-13.882,97.812-38.656l-17.938-17.938zm-167.72,0.75-17.938,17.938c28.15,24.585,63.103,37.23,98.25,37.938v-25.312c-28.668-0.6837-57.143-10.866-80.312-30.562z"/>
  <path id="path2985-6" style="enable-background:accumulate;color:#000000;" d="m369.12,221.06c-98.674,4.7493-177.87,83.633-183.19,182.16h31.656c5.2431-81.039,70.337-145.76,151.53-150.44v-31.719zm20,0.0625,0,31.719c80.664,5.2129,145.16,69.714,150.38,150.38h31.688c-5.3-98.15-83.91-176.8-182.07-182.1zm-203.25,202.09c4.7753,99.047,84.201,178.51,183.25,183.28v-31.656c-81.57-4.7046-146.88-70.057-151.59-151.62h-31.656zm353.69,0c-4.69,81.2-69.4,146.3-150.44,151.54v31.688c98.527-5.3122,177.37-84.545,182.12-183.22h-31.688z"/>
 </g>
</svg>
